PathFileType	4	(X/Y/Z)	pose_F01_0-89.trc
DataRate	CameraRate	NumFrames	NumMarkers	Units	OrigDataRate	OrigDataStartFrame	OrigNumFrames
30	30	9	21	m	30	0	89
Frame#	Time	CHip			RHip			RKnee			RAnkle			RBigToe			RSmallToe			RHeel			LHip			LKnee			LAnkle			LBigToe			LSmallToe			LHeel			Neck			Nose			RShoulder			RElbow			RWrist			LShoulder			LElbow			LWrist			
		X1	Y1	Z1	X2	Y2	Z2	X3	Y3	Z3	X4	Y4	Z4	X5	Y5	Z5	X6	Y6	Z6	X7	Y7	Z7	X8	Y8	Z8	X9	Y9	Z9	X10	Y10	Z10	X11	Y11	Z11	X12	Y12	Z12	X13	Y13	Z13	X14	Y14	Z14	X15	Y15	Z15	X16	Y16	Z16	X17	Y17	Z17	X18	Y18	Z18	X19	Y19	Z19	X20	Y20	Z20	X21	Y21	Z21	
0	0.0	-0.2247560044029266	1.839330380651414	-0.41150066542532526	-0.23698452521418706	1.8322750714114524	-0.3557850751344762	-0.24566482412274152	1.7176260669371057	-0.4055809952512286													-0.21455265380628147	1.8465043890255726	-0.4648741430454986	-0.20873840553709216	1.7237558025147137	-0.45241806530031087	-0.23374462180958266	1.624813836111612	-0.4690228441007768	-0.23835198179638853	1.587645000703577	-0.5101649786184993	-0.22427457844043788	1.6128552940250862	-0.493671392167171				-0.21737547388475612	1.9764402810957324	-0.4097616051364631	-0.228257673157688	2.0381788282778834	-0.4674952229246705	-0.23786813941550117	1.9734641269242892	-0.33547646180744733	-0.24411002440808813	1.9030241795762313	-0.2983113578498131	-0.2451001430864121	1.8351530518559083	-0.30901238074086895	-0.2005062298934823	1.9797596231386478	-0.5029238019659718	-0.19740613932052886	1.9211740309218568	-0.5308991935351188	-0.20065338697033697	1.8483544796980063	-0.5353364289799747
1	0.03333333333333333	-0.22472059774623468	1.8386944928052449	-0.4115358286131256	-0.23680572231081637	1.8328229574317363	-0.35603911659589654	-0.24566482412274152	1.7176260669371057	-0.4055809952512286													-0.21437655730520627	1.8442348663246917	-0.46472969988869717	-0.20873840553709216	1.7237558025147137	-0.45241806530031087	-0.23374462180958266	1.624813836111612	-0.4690228441007768	-0.23835198179638853	1.587645000703577	-0.5101649786184993	-0.22427457844043788	1.6128552940250862	-0.493671392167171				-0.21835632339844907	1.9765171951464775	-0.4128917673053565	-0.22825086169262124	2.0382213591698086	-0.46749861781839624	-0.23787373779027288	1.9734140446754982	-0.3354866358769363	-0.24399761053349495	1.9014777745999059	-0.2979221720474392	-0.2468245957852741	1.8342354811347203	-0.3070208036277192	-0.20050189246229996	1.979800941432028	-0.5028842865840577	-0.19668950079245115	1.9181293223267866	-0.5284977889581146	-0.19957608714415265	1.847831604135778	-0.5325908639157589
2	0.06666666666666667	-0.22468519108954277	1.8380586049590757	-0.41157099180092593	-0.23662691940744568	1.8333708434520202	-0.35629315805731687	-0.24566482412274152	1.7176260669371057	-0.4055809952512286													-0.21420046080413108	1.8419653436238108	-0.4645852567318957	-0.20873840553709216	1.7237558025147137	-0.45241806530031087	-0.23374462180958266	1.624813836111612	-0.4690228441007768	-0.23835198179638853	1.587645000703577	-0.5101649786184993	-0.22427457844043788	1.6128552940250862	-0.493671392167171				-0.21933717291214203	1.9765941091972226	-0.4160219294742499	-0.22824405022755448	2.038263890061734	-0.467502012712122	-0.23787933616504459	1.9733639624267072	-0.3354968099464252	-0.24388519665890177	1.8999313696235804	-0.2975329862450653	-0.24854904848413611	1.8333179104135324	-0.3050292265145695	-0.20049755503111763	1.979842259725408	-0.5028447712021437	-0.19597286226437344	1.9150846137317163	-0.5260963843811104	-0.19849878731796833	1.8473087285735499	-0.5298452988515432
3	0.1	-0.22464978443285086	1.8374227171129065	-0.41160615498872627	-0.236448116504075	1.833918729472304	-0.3565471995187372	-0.24566482412274152	1.7176260669371057	-0.4055809952512286													-0.21402436430305588	1.83969582092293	-0.46444081357509426	-0.20873840553709216	1.7237558025147137	-0.45241806530031087	-0.23374462180958266	1.624813836111612	-0.4690228441007768	-0.23835198179638853	1.587645000703577	-0.5101649786184993	-0.22427457844043788	1.6128552940250862	-0.493671392167171				-0.22031802242583498	1.9766710232479676	-0.41915209164314327	-0.22823723876248772	2.038306420953659	-0.46750540760584774	-0.2378849345398163	1.9733138801779162	-0.33550698401591417	-0.24377278278430858	1.898384964647255	-0.2971438004426914	-0.2502735011829981	1.8324003396923445	-0.30303764940141975	-0.2004932175999353	1.979883578018788	-0.5028052558202296	-0.19525622373629573	1.9120399051366461	-0.5236949798041062	-0.197421487491784	1.8467858530113217	-0.5270997337873274
4	0.13333333333333333	-0.22461437777615895	1.8367868292667373	-0.4116413181765266	-0.2362693136007043	1.834466615492588	-0.35680124098015753	-0.24566482412274152	1.7176260669371057	-0.4055809952512286													-0.21384826780198068	1.837426298222049	-0.4642963704182928	-0.20873840553709216	1.7237558025147137	-0.45241806530031087	-0.23374462180958266	1.624813836111612	-0.4690228441007768	-0.23835198179638853	1.587645000703577	-0.5101649786184993	-0.22427457844043788	1.6128552940250862	-0.493671392167171				-0.22129887193952794	1.9767479372987127	-0.42228225381203666	-0.22823042729742096	2.038348951845584	-0.4675088024995735	-0.237890532914588	1.9732637979291252	-0.3355171580854031	-0.2436603689097154	1.8968385596709296	-0.2967546146403175	-0.25199795388186014	1.8314827689711566	-0.30104607228827	-0.20048888016875296	1.979924896312168	-0.5027657404383156	-0.194539585208218	1.908995196541576	-0.521293575227102	-0.1963441876655997	1.8462629774490935	-0.5243541687231117
5	0.16666666666666666	-0.22477632340578207	1.835380328391216	-0.41144845889868537	-0.23644885551998518	1.83292929334005	-0.3565931079595659	-0.24566482412274152	1.7176260669371057	-0.4055809952512286													-0.21400236572559497	1.8359463579097615	-0.46410554227433937	-0.20873840553709216	1.7237558025147137	-0.45241806530031087	-0.23374462180958266	1.624813836111612	-0.4690228441007768	-0.23835198179638853	1.587645000703577	-0.5101649786184993	-0.22427457844043788	1.6128552940250862	-0.493671392167171				-0.22129295720432376	1.9766496050278795	-0.42236205755862116	-0.22822745929868765	2.038352317025235	-0.4674952266470206	-0.2378413602397836	1.9732862309280517	-0.3355864362486328	-0.2447413211894318	1.8967498624502463	-0.3001320137020463	-0.2502786859232294	1.8287516695031014	-0.3026844135960781	-1.7794383020151663	1.8906158396425259	1.2497663109197534	-0.1933596111013312	1.9075180119468784	-0.526287043298055	-0.19842724885365196	1.8423910113420343	-0.5304042077511089
6	0.2	-0.22486394804590246	1.839696053069561	-0.41199491181397263	-0.2365490639432543	1.8376214583229185	-0.35717626976358996	-0.24566482412274152	1.7176260669371057	-0.4055809952512286													-0.21409071632526516	1.8403521098920752	-0.464592243309958	-0.20873840553709216	1.7237558025147137	-0.45241806530031087	-0.23374462180958266	1.624813836111612	-0.4690228441007768	-0.23835198179638853	1.587645000703577	-0.5101649786184993	-0.22427457844043788	1.6128552940250862	-0.493671392167171				-0.22126661951888343	1.9767823428651567	-0.4223985504923914	-0.22822360763752528	2.0382921478740434	-0.46750447942705015	-0.2378334343256477	1.9733212006514795	-0.33566624483379637	-0.24458278595533903	1.8979974545876244	-0.3002929965921574	-0.2501167879813597	1.8330375089118474	-0.3033644491546156	-0.19858699420466708	1.9800816683691385	-0.5049490626944562	-0.19459191647561314	1.909923823246205	-0.5215065992228611	-0.19645363633615776	1.8445056145921905	-0.5241652539591422
7	0.23333333333333334	-0.22479189845266534	1.8384377197264463	-0.4119072569658917	-0.23657222362251473	1.8370819221164452	-0.357256703604134	-0.24566482412274152	1.7176260669371057	-0.4055809952512286													-0.21514938112087947	1.8382521113497108	-0.46753572104371793	-0.20873840553709216	1.7237558025147137	-0.45241806530031087	-0.23374462180958266	1.624813836111612	-0.4690228441007768	-0.23835198179638853	1.587645000703577	-0.5101649786184993	-0.22427457844043788	1.6128552940250862	-0.493671392167171				-0.22127520435331668	1.9765536521234002	-0.4224087848218785	-0.22821900119525557	2.0383090047195735	-0.4674895144715509	-0.2378345665029132	1.9731434555037888	-0.3356962547226836	-0.24480097263180528	1.8980761112247955	-0.30054633512281975	-0.25034096673639367	1.8326883251288801	-0.3034010240825642	-0.19855693013383258	1.979934127658024	-0.5049456044706294	-0.19255507426667165	1.9090466185926267	-0.5234920447732861	-0.19753989819792936	1.8427353120417167	-0.5271484701446003
8	0.26666666666666666	-0.22498778420091992	1.8345096587995513	-0.4113331906610166	-0.2367451336514761	1.8333361956647074	-0.3567055499899428	-0.24566482412274152	1.7176260669371057	-0.4055809952512286													-0.21437114097284893	1.8365501394687391	-0.46413763951628223	-0.20873840553709216	1.7237558025147137	-0.45241806530031087	-0.23374462180958266	1.624813836111612	-0.4690228441007768	-0.23835198179638853	1.587645000703577	-0.5101649786184993	-0.22427457844043788	1.6128552940250862	-0.493671392167171				-0.22128193294439977	1.9766693564350888	-0.4224742330438237	-0.228218981211495	2.0382981927735546	-0.4675136979721355	-0.2378860889581193	1.9732182223011445	-0.33568014604839685	-0.24462154993947396	1.8979380695973886	-0.30035473127220624	-0.25126797707767684	1.8317588466218029	-0.30631106872092745	-1.7787411634983927	1.890672891254046	1.2489885958889173	-0.19332171937067305	1.907359762559332	-0.5264360204720997	-0.19832017574665856	1.8399054690110401	-0.5302806348887725
